# xmcd
#
# Track frame offsets: 
#        150
#        26547
#        50483
#        71899
#        93698
#        114711
#        124630
#        147973
#        172859
#
# Disc length: 2579 seconds
#
# Revision: 2
# Processed by: cddbd v1.5.2PL0 Copyright (c) Steve Scherf et al.
# Submitted via: ExactAudioCopyFreeDBPlugin 1.0
#
DISCID=7e0a1109
DTITLE=Samba Touré - Blues Revival
DYEAR=2009
DGENRE=Blues
TTITLE0=Ali Farka
TTITLE1=Mali Kadi
TTITLE2=Idje
TTITLE3=Man Ye Wogne
TTITLE4=Almonde Yona Touré
TTITLE5=Yawoye (Live)
TTITLE6=Takamba (Live)
TTITLE7=Anbufo (Live Niafunke 2006)
TTITLE8=Foda Diakaina (Instrumental)
EXTD=
EXTT0=
EXTT1=
EXTT2=
EXTT3=
EXTT4=
EXTT5=
EXTT6=
EXTT7=
EXTT8=
PLAYORDER=
